<svg xmlns="http://www.w3.org/2000/svg" width="105.29" height="103" viewBox="0 0 105.29 103">
  <defs>
    <style>
      .cls-1 {
        fill: #fff;
      }

      .cls-2 {
        fill: #fdf50b;
      }
    </style>
  </defs>
  <title>Correo-icon</title>
  <g id="Layer_2" data-name="Layer 2">
    <g id="Layer_1-2" data-name="Layer 1">
      <g>
        <path class="cls-1" d="M103.71,11.39,86.88.86,72.17,4.59,60.94,11.05l-6.77,6L51.24,21l-6,16.56s-2.37,8.95-2,9.07l16.59,6,11-4.87s9.44-11.29,9.79-11.55S90.85,24.33,90.85,24.33l6.67-5.69Z"/>
        <path class="cls-1" d="M82.51,47.28c-1-.74-.12-1.31.24-1.83C85.83,41,89.34,36.91,92,32.16A2,2,0,0,1,94.06,31c.89.13,1.77.39,2.66.57,1.15.24,2.3.43,3.27-.61-1-1-2.32-.61-3.46-.81s-2.74.08-2.26-2a.58.58,0,0,0-.59-.68.83.83,0,0,0-.93.59c-.38,1.26-1.4,1.14-2.37,1.1-.39,0-.89,0-1.06-.38s.35-.64.63-.88c1.32-1.16,2.7-2.26,4-3.46,3.5-3.24,6.66-6.83,10.3-9.92.59-.5,1.7-.84.54-1.91-.88-.81-1.27-2.39-3-1a74.69,74.69,0,0,0-7.56,6.88c-1.54,1.59-2.73,3.62-4.63,4.71-8.9,5.15-17.11,11.27-25.27,17.46-2.15,1.63-4.11,2.49-6.81,1.68-1.25-.38-1.4-.64-.89-1.8C60,32.71,65.39,26.4,71.88,21l1.32-1.1c-1.5-.05-2.41.83-3.33,1.63-1.16,1-2.25,2.08-3.36,3.14-.22.2-.44.4-.73.25a.41.41,0,0,1-.14-.59c.64-1.32-.26-1.54-1.21-1.76-2.66-.62-5.31-1.29-8-1.87-1.3-.28-1.63-.56-.53-1.7A60.61,60.61,0,0,1,77.06,4.6a43.78,43.78,0,0,1,9.67-2.68c.31,0,.75,0,.82-.44S87.14,1,86.88.85a6.78,6.78,0,0,0-2.76-.8C78.33-.4,73.28,2.25,68.39,4.51a51.59,51.59,0,0,0-15.7,11.88c-2,2.11-3.7,3.32-6.75,2.41-2.29-.69-2.37-.35-1.8-2.76.15-.59.67-1.29-.18-1.82-1.75-1.1-2.91-.71-3.63,1.25-.66,1.79-1.1,2-3,1.45a13.33,13.33,0,0,0-1.65-.43,1.26,1.26,0,0,0-1.56.71c-.32.81.35,1.17.89,1.41a12.79,12.79,0,0,0,2.44.76c1.11.23,1.29.72.89,1.79-1.51,4-3,8.08-4.37,12.15a1.88,1.88,0,0,1-1,1.06C25,38.61,17.18,43.17,9,47,7.05,48,7,48,6.21,45.9c-1-2.34-1.4-2.46-3.48-1-1.38,1-.91,2.31-.41,3.35.77,1.62.36,2.44-1.22,2.93-.17,0-.32.14-.48.2-.7.27-.81.64-.31,1.25a2.52,2.52,0,0,1,.46,1.09c.22,1.39,1,1.64,2.21,1.19.35-.12,1-.54,1.08.2,0,1,.93,1.6,1.2,2.46,1.07,3.37,2.59,6.55,4,9.8C12.9,76.08,16.1,85,19.44,93.78c1.35,3.58,1.47,3.54-1.64,5.81-.3.22-.54.44-.45.82.12.53,3,2.79,3.42,2.58,1.82-1,3.93-1.44,5.39-3,1.11,1.09,2.22.81,3.51.25,2.82-1.22,5.69-2.3,8.56-3.4,17.4-6.7,35.07-12.63,52.92-18,1.58,2.09,2.93,2.43,6.31,1.34a13.73,13.73,0,0,1-1.26-1.53c-.64-1-.61-1.86.88-2,.64,0,.79-.3.55-.86l-1.35-3Q93,66.1,89.61,59.4q-2.94-5.85-5.9-11.69c-.23-.45-.38-1.47-1.2-.43"/>
        <path d="M96.28,72.79l1.35,3c.24.56.09.82-.55.86-1.49.1-1.52.93-.88,2a14.7,14.7,0,0,0,1.26,1.53c-3.38,1.09-4.73.75-6.31-1.34-.65-1.16-1.52-1.53-2.63-.61a3.15,3.15,0,0,1-1.43.45c-5,1.29-10,2.42-15,3.91-5.49,1.66-10.89,3.64-16.31,5.52-8.93,3.09-18,5.77-26.68,9.52-.62.27-1.27.87-1.84.79-1.59-.2-1.41.58-1.11,1.56-1.46,1.6-3.57,2.07-5.39,3-.4.21-3.3-2-3.42-2.58-.09-.38.15-.6.45-.82,3.11-2.27,3-2.23,1.64-5.81C16.1,85,12.9,76.08,9.22,67.39c-1.37-3.25-2.89-6.43-4-9.8-.27-.86-1.16-1.41-1.2-2.46,0-.74-.73-.32-1.08-.2-1.22.45-2,.2-2.21-1.19a2.52,2.52,0,0,0-.46-1.09c-.5-.61-.39-1,.31-1.25.16-.06.31-.15.48-.2,1.58-.49,2-1.31,1.22-2.93-.5-1-1-2.38.41-3.35,2.08-1.48,2.53-1.36,3.48,1C7,48,7.05,48,9,47c8.19-3.86,16-8.42,24-12.66a1.87,1.87,0,0,0,1-1.07c1.42-4.06,2.86-8.11,4.37-12.14.4-1.07.22-1.56-.89-1.79a12.79,12.79,0,0,1-2.44-.76c-.54-.24-1.21-.6-.89-1.41a1.26,1.26,0,0,1,1.56-.71,13.33,13.33,0,0,1,1.65.43c1.86.55,2.3.34,3-1.45.72-2,1.88-2.35,3.63-1.25.85.53.33,1.23.18,1.82-.57,2.41-.49,2.07,1.8,2.76,3.05.91,4.77-.3,6.75-2.41A51.59,51.59,0,0,1,68.39,4.51C73.28,2.25,78.33-.4,84.12.05a6.78,6.78,0,0,1,2.76.8c.26.15.74.16.67.63s-.51.39-.82.44A43.78,43.78,0,0,0,77.06,4.6,60.61,60.61,0,0,0,55.92,19c-1.1,1.14-.77,1.42.53,1.7,2.67.58,5.32,1.25,8,1.87.95.22,1.86.44,1.21,1.76a.41.41,0,0,0,.14.59c.29.15.51,0,.73-.25,1.11-1.06,2.2-2.14,3.36-3.14.92-.8,1.83-1.68,3.33-1.63L71.88,21C65.39,26.4,60,32.71,56.6,40.53c-.51,1.16-.36,1.42.89,1.8,2.7.81,4.66,0,6.81-1.68,8.16-6.19,16.37-12.31,25.27-17.46,1.9-1.1,3.09-3.12,4.63-4.71a74.69,74.69,0,0,1,7.56-6.88c1.75-1.36,2.14.22,3,1,1.16,1.07,0,1.41-.54,1.91-3.64,3.09-6.8,6.68-10.3,9.92-1.29,1.2-2.67,2.3-4,3.46-.28.24-.83.38-.63.88s.67.37,1.06.38c1,0,2,.16,2.37-1.1a.83.83,0,0,1,.93-.59.58.58,0,0,1,.59.68c-.48,2.09,1.15,1.82,2.26,2S98.94,30,100,31c-1,1-2.12.85-3.27.61-.89-.18-1.76-.44-2.66-.57A2,2,0,0,0,92,32.16c-2.61,4.75-6.12,8.87-9.2,13.29-.36.52-1.24,1.09-.24,1.83.35.78.75,1.53,1,2.33,2.73,7.55,6.72,14.53,9.93,21.86.62,1.43,1.37,1.93,2.8,1.32M71.54,59.64c.44-.59.93-1.14,1.33-1.75,3.87-5.87,7.59-11.84,11.8-17.47A57.92,57.92,0,0,0,90.07,32c.17-.34.71-.68.19-1.18s-4-.83-4.67-.38C78.32,35.29,71,40.1,64.21,45.66c-1.1.9-2.44,2.13-3.94,1.79C57.58,46.84,55,45.82,52.36,45c-.38-.13-.89-.26-.56-.79.79-1.26.92-3,2.72-3.48.54-.13.73-.54.93-.92a70,70,0,0,1,9.71-13.71c.69-.77.45-.94-.38-1.16q-10.32-2.65-20.84-4.39c-.64-.11-1-.09-1.29.64-1.46,4.12-3,8.23-4.47,12.33-1.8,5.1-3.57,10.2-5.4,15.28-.61,1.7-1.4,3.35-2,5-.48,1.31,0,1.89,1.48,2,3.49.31,7,.61,10.46,1.19,8.75,1.46,17.58,2.49,26.36,3.76a2,2,0,0,0,2.47-1.15M14.68,58.16c-.56-.26-1.43-.17-1.45-.83,0-1.66-1.17-2.64-2.06-3.8-.2-.27-.57-.52-.29-.86.49-.58,1.3-.26,1.92-.54.31-.14.57-.05.48.38-.23,1,.63.75,1.07.79,3.46.31,6.92.54,10.37.87A1.73,1.73,0,0,0,26.66,53c1.72-3.3,2.45-6.93,3.61-10.41a1.09,1.09,0,0,0-.2-1.12c-.35-.32-.74.07-1.08.25-1.25.67-2.49,1.37-3.76,2-4.8,2.48-9.83,4.5-14.51,7.23-1.13.66-1.46,1.28-1,2.56,3,7.58,5.77,15.21,8.18,23a107.24,107.24,0,0,0,6.7,17.16c.38.74.6,1.52,1.85,1,11.25-5,23.12-8.31,34.74-12.3,8.39-2.88,16.82-5.67,25.25-8.46.94-.31,1.25-.54,1-1.72a18.9,18.9,0,0,0-1.64-3.69c-2-4.34-3.76-8.8-6.26-12.9-1.22-2-1.25-2-2.48-.12-1.73,2.67-3.42,5.36-5.16,8a2.63,2.63,0,0,1-3,1.37c-6.37-1.58-12.91-2.08-19.39-3-7.49-1-15-2.08-22.53-2.71-4.12-.35-8.23-.86-12.3-1"/>
        <path class="cls-2" d="M26.16,100c-.3-1-.48-1.76,1.11-1.56.57.08,1.22-.52,1.84-.79,8.68-3.75,17.75-6.43,26.68-9.52,5.42-1.88,10.82-3.86,16.31-5.52,4.94-1.49,10-2.62,15-3.91a3.15,3.15,0,0,0,1.43-.45c1.11-.92,2-.55,2.63.61C73.3,84.17,55.63,90.1,38.23,96.8c-2.87,1.1-5.74,2.18-8.56,3.4-1.29.56-2.4.84-3.51-.25"/>
        <path class="cls-2" d="M96.28,72.79c-1.43.61-2.18.11-2.81-1.32-3.2-7.33-7.19-14.31-9.92-21.86-.29-.8-.69-1.55-1-2.33.82-1,1,0,1.2.43q3,5.84,5.9,11.69Q93,66.09,96.28,72.79"/>
        <path class="cls-2" d="M14.68,58.16c4.07.18,8.18.69,12.3,1,7.53.63,15,1.7,22.53,2.71,6.48.87,13,1.37,19.39,3a2.63,2.63,0,0,0,3-1.37c1.74-2.67,3.43-5.36,5.16-8,1.23-1.88,1.26-1.87,2.48.12,2.5,4.1,4.24,8.56,6.26,12.9a18.9,18.9,0,0,1,1.64,3.69c.27,1.18,0,1.41-1,1.72-8.43,2.79-16.86,5.58-25.25,8.46-11.62,4-23.49,7.29-34.74,12.3-1.25.56-1.47-.22-1.85-1a107.24,107.24,0,0,1-6.7-17.16c-2.41-7.78-5.21-15.41-8.18-23-.5-1.28-.17-1.9,1-2.56,4.68-2.73,9.71-4.75,14.51-7.23,1.27-.66,2.51-1.36,3.76-2,.34-.18.73-.57,1.08-.25a1.09,1.09,0,0,1,.2,1.12C29.11,46.07,28.38,49.7,26.66,53a1.73,1.73,0,0,1-1.94,1.17c-3.45-.33-6.91-.56-10.37-.87-.44,0-1.3.25-1.07-.79.09-.43-.17-.52-.48-.38-.62.28-1.43,0-1.92.54-.28.34.09.59.29.86.89,1.16,2,2.14,2.06,3.8,0,.66.89.57,1.45.83"/>
        <path class="cls-1" d="M38.18,33.49c1.49-4.1,3-8.21,4.47-12.33.26-.73.65-.75,1.29-.64q10.52,1.73,20.84,4.39c.83.22,1.07.39.38,1.16a70,70,0,0,0-9.71,13.71c-.2.38-.39.79-.93.92-1.8.43-1.93,2.22-2.72,3.48-.33.53.18.66.56.79,2.63.85,5.22,1.87,7.91,2.48,1.5.34,2.84-.89,3.94-1.79C71,40.1,78.32,35.29,85.59,30.41c.68-.45,4.13-.13,4.67.38s0,.84-.19,1.18a57.92,57.92,0,0,1-5.4,8.45c-4.21,5.63-7.93,11.6-11.8,17.47-.4.61-.89,1.16-1.34,1.75-5.15-.82-10.31-1.65-15.47-2.45C48.93,56.07,41.81,55,34.68,53.9c-1.24-.18-1.46-.61-1.13-1.77.71-2.51,1.29-5.06,1.89-7.59.88-3.69,2.13-7.29,2.74-11"/>
        <path class="cls-2" d="M38.18,33.49c-.61,3.76-1.86,7.36-2.74,11-.6,2.53-1.18,5.08-1.89,7.59-.33,1.16-.11,1.59,1.13,1.77,7.13,1.05,14.25,2.17,21.38,3.29,5.16.8,10.32,1.63,15.47,2.45a2,2,0,0,1-2.46,1.15c-8.79-1.27-17.61-2.3-26.36-3.76-3.48-.58-7-.88-10.46-1.19-1.48-.13-2-.71-1.48-2,.61-1.7,1.4-3.35,2-5,1.83-5.08,3.6-10.18,5.4-15.28"/>
      </g>
    </g>
  </g>
</svg>
