<svg xmlns="http://www.w3.org/2000/svg" width="304.98" height="117.57" viewBox="0 0 304.98 117.57">
  <defs>
    <style>
      .cls-1 {
        fill: #fff;
      }

      .cls-2 {
        fill: #fdf50b;
      }
    </style>
  </defs>
  <title>fechas-importantes</title>
  <g id="Layer_2" data-name="Layer 2">
    <g id="Layer_1-2" data-name="Layer 1">
      <g>
        <path class="cls-1" d="M287.34,74.83c-30,.43-59.93,1.71-89.89,2.8s-59.93,1.81-89.9,2l-90,.21a17.16,17.16,0,0,1-5.62-1.68,18,18,0,0,1-4.7-3.46,22.46,22.46,0,0,1-5.63-10A25.74,25.74,0,0,1,.74,59L.62,53.37.37,42.14.1,30.9C.05,29,0,27.18,0,25.2a25.69,25.69,0,0,1,1-5.75,21.84,21.84,0,0,1,2.38-5.37A19.65,19.65,0,0,1,7.16,9.49a17.89,17.89,0,0,1,5-3.24,17.38,17.38,0,0,1,5.92-1.31Q63.06,3.49,108,2.46l45-1c15-.35,30-.57,45-.83s30-.43,45-.52L254.11,0l11.25,0H276.6l5.62,0c1.9,0,3.65,0,5.81.14A18,18,0,0,1,293.88,2a18.52,18.52,0,0,1,4.8,3.66A22.82,22.82,0,0,1,304.26,16a25.8,25.8,0,0,1,.72,5.8v5.63l0,11.25q0,5.61,0,11.24c0,1.87,0,3.73-.06,5.65a24.73,24.73,0,0,1-1.11,5.59,22.85,22.85,0,0,1-2.4,5.16,19,19,0,0,1-3.67,4.33,17,17,0,0,1-4.83,3,16.56,16.56,0,0,1-5.56,1.14m0-.48a15.55,15.55,0,0,0,10-4.1A18.45,18.45,0,0,0,300.87,66a20.48,20.48,0,0,0,2.25-5,23.87,23.87,0,0,0,.95-5.43c.06-1.83,0-3.71-.07-5.59-.1-3.74-.23-7.49-.37-11.23l-.42-11.24-.21-5.6a24.26,24.26,0,0,0-.88-5.3,20.06,20.06,0,0,0-5.33-9,15.67,15.67,0,0,0-4.22-2.95,14.65,14.65,0,0,0-4.86-1.32c-1.59-.08-3.59.06-5.43.11l-5.62.22L265.43,4l-11.24.38L243,4.71c-15,.42-30,.67-44.95,1s-30,.54-44.95.71l-45,.52q-45,.57-89.93.6a15.18,15.18,0,0,0-5,1,15.58,15.58,0,0,0-4.43,2.71,17.33,17.33,0,0,0-3.44,4A19.86,19.86,0,0,0,3,20.06a23.46,23.46,0,0,0-1.06,5.27c-.1,1.77-.07,3.67-.06,5.54L2,42.11l.14,11.24L2.22,59A24.33,24.33,0,0,0,3,64.34a20.47,20.47,0,0,0,5.27,9.35,16.55,16.55,0,0,0,4.33,3.14,15.72,15.72,0,0,0,5.09,1.5c1.74.12,3.67,0,5.53,0l5.62-.14,11.23-.31,22.48-.74,44.94-1.43q44.94-1.2,89.92-1c30,.06,60,.32,89.93-.27"/>
        <g>
          <path class="cls-2" d="M41.22,37.82H36.69V27.12h4.53v-.86c0-4.45,1-7.75,3.3-10s5.53-3.38,10.12-3.38a29.67,29.67,0,0,1,8.91,1.08v9.62a16.24,16.24,0,0,0-5.1-.79c-2.51,0-3.88,1.15-3.88,3.67v.93h8.91V37.82H54.79V65.76H41.22Z"/>
          <path class="cls-2" d="M65.56,46.51v-.14c0-11.35,8.11-20.32,19.6-20.32,13.43,0,19.61,9.83,19.61,21.25,0,.86,0,1.87-.07,2.8h-26c1.08,4.24,4.17,6.39,8.4,6.39,3.23,0,5.82-1.22,8.62-4l7.54,6.25c-3.73,4.74-9.12,7.9-16.88,7.9C74.18,66.69,65.56,58.58,65.56,46.51ZM92,43.14c-.51-4.31-3-7-6.75-7s-6,2.8-6.75,7Z"/>
          <path class="cls-2" d="M109,46.51v-.14c0-11,8.54-20.25,20.82-20.25,8,0,13.28,3.44,16.59,8.69l-9.27,6.89c-1.86-2.58-4-4.09-7.25-4.09-4.38,0-7.61,3.87-7.61,8.61v.15c0,5,3.16,8.83,7.76,8.83,3.23,0,5.31-1.51,7.46-4l9.12,6.61c-3.59,5.31-8.76,8.9-17.3,8.9A20,20,0,0,1,109,46.51Z"/>
          <path class="cls-2" d="M151.45,13.34h13.64V32.22c2.51-3.23,6.1-6.17,11.63-6.17,8.26,0,13.22,5.45,13.22,14.29V65.76H176.29v-21c0-4.24-2.23-6.54-5.46-6.54s-5.74,2.3-5.74,6.54v21H151.45Z"/>
          <path class="cls-2" d="M195,54.63v-.15c0-8,6.1-12.21,15.22-12.21a29.72,29.72,0,0,1,9.33,1.51v-.64c0-4-2.51-6.32-7.75-6.32A27.46,27.46,0,0,0,201.14,39l-2.8-9.62a38.94,38.94,0,0,1,15.72-3c7,0,11.71,1.65,14.8,4.74C231.8,34,233,38,233,43.42V65.76h-13.5v-4a14.64,14.64,0,0,1-11.42,4.89C200.71,66.62,195,62.38,195,54.63Zm24.7-3V49.89a14.24,14.24,0,0,0-5.32-1c-3.95,0-6.24,1.94-6.24,4.81v.15c0,2.65,2,4.23,4.81,4.23C216.94,58.07,219.74,55.56,219.74,51.68Z"/>
          <path class="cls-2" d="M237,60.87l5.1-8.26a25.25,25.25,0,0,0,13.36,4.46c2.37,0,3.45-.72,3.45-2.09v-.14c0-1.51-2.16-2.15-6.25-3.3-7.68-2-13.79-4.6-13.79-12.42V39c0-8.26,6.61-12.85,15.58-12.85a30.4,30.4,0,0,1,16,4.52l-4.67,8.62c-4-2.23-8.4-3.59-11.49-3.59-2.08,0-3.16.79-3.16,1.87v.14c0,1.51,2.23,2.23,6.32,3.45,7.68,2.15,13.79,4.81,13.79,12.35v.14c0,8.55-6.39,13-15.87,13A31.34,31.34,0,0,1,237,60.87Z"/>
        </g>
        <g>
          <path class="cls-1" d="M24.78,86h7v5h-7Zm.14,6.69h6.74V111.9H24.92Z"/>
          <path class="cls-1" d="M39.66,92.73h6.73v2.62a7.06,7.06,0,0,1,5.71-3,5.88,5.88,0,0,1,5.53,3.12A8,8,0,0,1,64,92.31c4.07,0,6.55,2.55,6.55,7V111.9H63.86V101.48c0-2.09-1-3.19-2.62-3.19s-2.76,1.1-2.76,3.19V111.9H51.74V101.48c0-2.09-1-3.19-2.62-3.19s-2.73,1.1-2.73,3.19V111.9H39.66Z"/>
          <path class="cls-1" d="M78.31,92.73h6.74v2.55a7,7,0,0,1,5.81-3c4.57,0,8.5,3.79,8.5,9.92v.07c0,6.23-3.93,10-8.47,10a7.2,7.2,0,0,1-5.84-2.77v8H78.31Zm14.42,9.6v-.07a3.93,3.93,0,1,0-7.83,0v.07a3.94,3.94,0,1,0,7.83,0Z"/>
          <path class="cls-1" d="M105.7,102.4v-.07c0-5.45,4.46-10,10.63-10s10.56,4.5,10.56,10v.07c0,5.46-4.47,10-10.63,10S105.7,107.86,105.7,102.4Zm14.63,0v-.07A4.16,4.16,0,0,0,116.26,98a4,4,0,0,0-4,4.25v.07a4.17,4.17,0,0,0,4.08,4.33A4,4,0,0,0,120.33,102.4Z"/>
          <path class="cls-1" d="M134,92.73h6.73v3.86c1.1-2.62,2.87-4.32,6.06-4.18V99.5h-.56c-3.51,0-5.5,2-5.5,6.45v6H134Z"/>
          <path class="cls-1" d="M154.52,106v-7.8h-2.27V92.73h2.27V87.88h6.73v4.85h4.47v5.42h-4.47v6.49c0,1.34.6,1.91,1.85,1.91a5.94,5.94,0,0,0,2.55-.64v5.28a9.66,9.66,0,0,1-4.68,1.1C156.93,112.29,154.52,110.52,154.52,106Z"/>
          <path class="cls-1" d="M171.92,106.41v-.07c0-4,3-6,7.51-6a14.6,14.6,0,0,1,4.6.75v-.32c0-2-1.24-3.12-3.82-3.12a13.56,13.56,0,0,0-5.28,1.06l-1.38-4.74a19.16,19.16,0,0,1,7.76-1.49c3.43,0,5.77.81,7.29,2.34s2.06,3.4,2.06,6.09v11H184v-2a7.24,7.24,0,0,1-5.64,2.41C174.72,112.33,171.92,110.24,171.92,106.41ZM184.1,105v-.89a7.06,7.06,0,0,0-2.62-.5c-1.95,0-3.08,1-3.08,2.38V106a2.11,2.11,0,0,0,2.37,2.09A3.08,3.08,0,0,0,184.1,105Z"/>
          <path class="cls-1" d="M198.31,92.73H205v2.7a7.09,7.09,0,0,1,5.74-3.12c4.08,0,6.52,2.69,6.52,7V111.9h-6.73V101.52c0-2.09-1.1-3.23-2.69-3.23S205,99.43,205,101.52V111.9h-6.73Z"/>
          <path class="cls-1" d="M226.19,106v-7.8h-2.26V92.73h2.26V87.88h6.73v4.85h4.47v5.42h-4.47v6.49c0,1.34.61,1.91,1.85,1.91a5.94,5.94,0,0,0,2.55-.64v5.28a9.66,9.66,0,0,1-4.68,1.1C228.6,112.29,226.19,110.52,226.19,106Z"/>
          <path class="cls-1" d="M243.2,102.4v-.07c0-5.59,4-10,9.67-10,6.63,0,9.67,4.85,9.67,10.48,0,.43,0,.93,0,1.39H249.68a4,4,0,0,0,4.15,3.15,5.77,5.77,0,0,0,4.25-2l3.72,3.08a10,10,0,0,1-8.33,3.9C247.45,112.36,243.2,108.36,243.2,102.4Zm13-1.66c-.25-2.13-1.49-3.47-3.33-3.47s-3,1.38-3.33,3.47Z"/>
          <path class="cls-1" d="M268.21,109.49l2.52-4.07a12.43,12.43,0,0,0,6.59,2.19c1.16,0,1.7-.35,1.7-1v-.08c0-.74-1.07-1.06-3.09-1.62-3.79-1-6.8-2.27-6.8-6.13v-.08c0-4.07,3.26-6.34,7.69-6.34a15.06,15.06,0,0,1,7.9,2.23l-2.3,4.26a13,13,0,0,0-5.67-1.78c-1,0-1.56.39-1.56.93v.07c0,.74,1.1,1.1,3.12,1.7,3.79,1.06,6.8,2.37,6.8,6.09v.07c0,4.22-3.15,6.42-7.83,6.42A15.5,15.5,0,0,1,268.21,109.49Z"/>
        </g>
      </g>
    </g>
  </g>
</svg>
