<svg id="Layer_1" data-name="Layer 1" xmlns="http://www.w3.org/2000/svg" xmlns:xlink="http://www.w3.org/1999/xlink" viewBox="0 0 1917.02 473.84"><defs><style>.cls-1{fill:none;}.cls-2{clip-path:url(#clip-path);}.cls-3{fill:#eee;opacity:0.25;isolation:isolate;}</style><clipPath id="clip-path"><rect class="cls-1" x="0.46" width="1916.11" height="473.84"/></clipPath></defs><title>4Artboard 1</title><g class="cls-2"><g id="Layer_2" data-name="Layer 2"><g id="Layer_1-2" data-name="Layer 1-2"><polygon class="cls-3" points="954.07 140.85 904.38 140.85 875.89 185.75 847.63 140.85 796.8 140.85 849.22 219.26 796.01 298.19 742.79 218.8 795.21 140.85 745.52 140.85 717.03 185.75 688.77 140.85 637.94 140.85 690.36 219.26 637.15 298.19 583.93 218.8 636.35 140.85 586.66 140.85 558.17 185.75 529.91 140.85 479.08 140.85 531.5 219.26 478.29 298.19 425.07 218.8 477.49 140.85 427.8 140.85 399.31 185.75 371.05 140.85 320.23 140.85 372.65 219.26 319.43 298.19 266.21 218.8 318.63 140.85 268.94 140.85 240.46 185.75 212.19 140.85 161.37 140.85 213.79 219.26 160.57 298.19 107.35 218.8 159.77 140.85 110.08 140.85 81.59 185.75 53.33 140.85 2.51 140.85 54.93 219.26 0.23 300.4 49.91 300.4 80.68 252.3 111.22 300.4 159.09 300.4 162.05 300.4 208.77 300.4 239.54 252.3 270.08 300.4 317.95 300.4 320.91 300.4 367.63 300.4 398.4 252.3 428.94 300.4 476.81 300.4 479.77 300.4 526.49 300.4 557.26 252.3 587.8 300.4 635.66 300.4 638.63 300.4 685.35 300.4 716.12 252.3 746.66 300.4 794.52 300.4 797.49 300.4 844.21 300.4 874.98 252.3 905.52 300.4 956.35 300.4 901.64 218.8 954.07 140.85"/><polygon class="cls-3" points="953.84 314.3 904.15 314.3 875.66 359.2 847.4 314.3 796.57 314.3 849 392.7 795.78 471.64 742.56 392.25 794.98 314.3 745.29 314.3 716.8 359.2 688.54 314.3 637.71 314.3 690.14 392.7 636.92 471.64 583.7 392.25 636.12 314.3 586.43 314.3 557.94 359.2 529.68 314.3 478.86 314.3 531.28 392.7 478.06 471.64 424.84 392.25 477.26 314.3 427.57 314.3 399.08 359.2 370.82 314.3 320 314.3 372.42 392.7 319.2 471.64 265.98 392.25 318.4 314.3 268.72 314.3 240.23 359.2 211.96 314.3 161.14 314.3 213.56 392.7 160.34 471.64 107.12 392.25 159.54 314.3 109.86 314.3 81.37 359.2 53.1 314.3 2.28 314.3 54.7 392.7 0 473.84 49.69 473.84 80.46 425.75 111 473.84 158.86 473.84 161.82 473.84 208.54 473.84 239.31 425.75 269.86 473.84 317.72 473.84 320.68 473.84 367.4 473.84 398.17 425.75 428.71 473.84 476.58 473.84 479.54 473.84 526.26 473.84 557.03 425.75 587.57 473.84 635.44 473.84 638.4 473.84 685.12 473.84 715.89 425.75 746.43 473.84 794.29 473.84 797.26 473.84 843.98 473.84 874.75 425.75 905.29 473.84 956.12 473.84 901.42 392.25 953.84 314.3"/><polygon class="cls-3" points="1899.8 -9.46 1855.55 -16.7 1836.57 13.22 1813.38 -23.61 1764.11 -31.68 1757.48 -31.68 1809.9 46.72 1756.68 125.66 1703.46 46.27 1755.88 -31.68 1706.2 -31.68 1677.71 13.22 1649.44 -31.68 1598.62 -31.68 1651.04 46.72 1597.82 125.65 1544.6 46.27 1597.02 -31.68 1547.34 -31.68 1518.85 13.22 1490.58 -31.68 1439.76 -31.68 1492.18 46.72 1438.97 125.65 1385.74 46.27 1438.17 -31.68 1388.48 -31.68 1359.99 13.22 1331.73 -31.68 1280.9 -31.68 1333.32 46.72 1280.11 125.66 1226.88 46.27 1279.31 -31.68 1229.62 -31.68 1201.13 13.22 1172.87 -31.68 1122.04 -31.68 1174.46 46.72 1121.25 125.66 1068.03 46.27 1120.45 -31.68 1070.76 -31.68 1042.27 13.22 1014.01 -31.68 963.18 -31.68 1015.6 46.72 960.9 127.86 1010.59 127.86 1041.36 79.77 1071.9 127.86 1119.76 127.86 1122.73 127.86 1169.45 127.86 1200.22 79.77 1230.76 127.86 1278.62 127.86 1281.59 127.86 1328.31 127.86 1359.08 79.77 1389.62 127.86 1437.48 127.86 1440.44 127.86 1487.17 127.86 1517.93 79.77 1548.48 127.86 1596.34 127.86 1599.3 127.86 1646.02 127.86 1676.79 79.77 1707.34 127.86 1755.2 127.86 1758.16 127.86 1804.88 127.86 1835.65 79.77 1866.19 127.86 1917.02 127.86 1862.32 46.27 1899.8 -9.46"/><polygon class="cls-3" points="1914.51 140.85 1864.83 140.85 1836.34 185.75 1808.07 140.85 1757.25 140.85 1809.67 219.26 1756.45 298.19 1703.23 218.8 1755.65 140.85 1705.97 140.85 1677.48 185.75 1649.21 140.85 1598.39 140.85 1650.81 219.26 1597.6 298.19 1544.38 218.8 1596.8 140.85 1547.11 140.85 1518.62 185.75 1490.36 140.85 1439.53 140.85 1491.95 219.26 1438.74 298.19 1385.52 218.8 1437.94 140.85 1388.25 140.85 1359.76 185.75 1331.5 140.85 1280.67 140.85 1333.09 219.26 1279.88 298.19 1226.66 218.8 1279.08 140.85 1229.39 140.85 1200.9 185.75 1172.64 140.85 1121.81 140.85 1174.23 219.26 1121.02 298.19 1067.8 218.8 1120.22 140.85 1070.53 140.85 1042.04 185.75 1013.78 140.85 962.95 140.85 1015.38 219.26 960.67 300.4 1010.36 300.4 1041.13 252.3 1071.67 300.4 1119.53 300.4 1122.5 300.4 1169.22 300.4 1199.99 252.3 1230.53 300.4 1278.39 300.4 1281.36 300.4 1328.08 300.4 1358.85 252.3 1389.39 300.4 1437.25 300.4 1440.22 300.4 1486.94 300.4 1517.71 252.3 1548.25 300.4 1596.11 300.4 1599.08 300.4 1645.8 300.4 1676.57 252.3 1707.11 300.4 1754.97 300.4 1757.93 300.4 1804.65 300.4 1835.42 252.3 1865.97 300.4 1916.79 300.4 1862.09 218.8 1914.51 140.85"/><polygon class="cls-3" points="1914.29 314.3 1864.6 314.3 1836.11 359.2 1807.85 314.3 1757.02 314.3 1809.44 392.7 1756.23 471.64 1703.01 392.25 1755.43 314.3 1705.74 314.3 1677.25 359.2 1648.99 314.3 1598.16 314.3 1650.58 392.7 1597.37 471.64 1544.15 392.25 1596.57 314.3 1546.88 314.3 1518.39 359.2 1490.13 314.3 1439.3 314.3 1491.72 392.7 1438.51 471.64 1385.29 392.25 1437.71 314.3 1388.02 314.3 1359.53 359.2 1331.27 314.3 1280.44 314.3 1332.87 392.7 1279.65 471.64 1226.43 392.25 1278.85 314.3 1229.16 314.3 1200.67 359.2 1172.41 314.3 1121.58 314.3 1174.01 392.7 1120.79 471.64 1067.57 392.25 1119.99 314.3 1070.3 314.3 1041.81 359.2 1013.55 314.3 962.73 314.3 1015.15 392.7 960.45 473.84 1010.13 473.84 1040.9 425.75 1071.44 473.84 1119.31 473.84 1122.27 473.84 1168.99 473.84 1199.76 425.75 1230.3 473.84 1278.16 473.84 1281.13 473.84 1327.85 473.84 1358.62 425.75 1389.16 473.84 1437.02 473.84 1439.99 473.84 1486.71 473.84 1517.48 425.75 1548.02 473.84 1595.88 473.84 1598.85 473.84 1645.57 473.84 1676.34 425.75 1706.88 473.84 1754.74 473.84 1757.71 473.84 1804.43 473.84 1835.2 425.75 1865.74 473.84 1916.57 473.84 1861.86 392.25 1914.29 314.3"/><polygon class="cls-3" points="954.29 -31.68 904.61 -31.68 876.12 13.22 847.86 -31.68 797.03 -31.68 849.45 46.72 796.24 125.66 743.01 46.27 795.44 -31.68 745.75 -31.68 717.26 13.22 689 -31.68 638.17 -31.68 690.59 46.72 637.38 125.66 584.15 46.27 636.58 -31.68 586.89 -31.68 558.4 13.22 530.14 -31.68 479.31 -31.68 531.73 46.72 478.52 125.66 425.3 46.27 477.72 -31.68 428.03 -31.68 399.54 13.22 371.28 -31.68 320.45 -31.68 372.87 46.72 319.66 125.66 266.44 46.27 318.86 -31.68 269.17 -31.68 240.68 13.22 212.42 -31.68 161.59 -31.68 214.01 46.72 160.8 125.66 107.58 46.27 160 -31.68 110.31 -31.68 81.82 13.22 53.56 -31.68 2.73 -31.68 55.16 46.72 0.46 127.86 50.14 127.86 80.91 79.77 111.45 127.86 159.31 127.86 162.28 127.86 209 127.86 239.77 79.77 270.31 127.86 318.17 127.86 321.14 127.86 367.86 127.86 398.63 79.77 429.17 127.86 477.03 127.86 480 127.86 526.72 127.86 557.49 79.77 588.03 127.86 635.89 127.86 638.86 127.86 685.58 127.86 716.35 79.77 746.89 127.86 794.75 127.86 797.72 127.86 844.44 127.86 875.21 79.77 905.75 127.86 956.57 127.86 901.87 46.27 954.29 -31.68"/></g></g></g></svg>