<svg xmlns="http://www.w3.org/2000/svg" width="184.95" height="226.46" viewBox="0 0 184.95 226.46">
  <defs>
    <style>
      .cls-1 {
        fill: #fff;
      }

      .cls-2 {
        fill: #f4eb3b;
      }
    </style>
  </defs>
  <title>Logo-correo</title>
  <g id="Layer_2" data-name="Layer 2">
    <g id="Layer_1-2" data-name="Layer 1">
      <g>
        <g>
          <path d="M10.78,197.48a5.65,5.65,0,0,1-1.14.38,5.09,5.09,0,0,1-1.16.13,7.42,7.42,0,0,1-6.12-3A12.41,12.41,0,0,1,0,187.12,13.4,13.4,0,0,1,2.3,179a7.17,7.17,0,0,1,6-3.11,6,6,0,0,1,1.3.13,4.8,4.8,0,0,1,1.16.39v4a5.87,5.87,0,0,0-1.1-.36,4.83,4.83,0,0,0-1-.12,3.69,3.69,0,0,0-3.2,1.9,9.25,9.25,0,0,0-1.23,5.06,8.66,8.66,0,0,0,1.26,4.91,3.81,3.81,0,0,0,3.25,1.88,4,4,0,0,0,1-.13,5.59,5.59,0,0,0,1-.39Z"/>
          <path d="M26.42,187.24a14.23,14.23,0,0,1-1.89,7.84A5.77,5.77,0,0,1,19.48,198a5.71,5.71,0,0,1-5.09-2.92q-1.83-2.92-1.83-8.13a15.31,15.31,0,0,1,1.85-8.14,5.82,5.82,0,0,1,10.16.07Q26.42,181.89,26.42,187.24Zm-6.94,6.64a2.43,2.43,0,0,0,2.26-1.73,18.54,18.54,0,0,0,0-10.44,2.34,2.34,0,0,0-4.52,0,14.1,14.1,0,0,0-.74,5.24,14,14,0,0,0,.74,5.22A2.42,2.42,0,0,0,19.48,193.88Z"/>
          <path d="M27.88,197.72l1.93-21.59h5.07l1,8.24q.24,1.88.39,3.6c.1,1.15.19,2.26.25,3.35.16-1.9.3-3.41.41-4.51s.21-1.91.28-2.44l1.27-8.24h5l1.66,21.59h-4l-.42-10c0-.23,0-.59,0-1.06q-.18-3.93-.18-6.45L38,197.72H35.13l-2.41-17.66c0,1.47-.09,3.57-.25,6.3,0,.63-.06,1.09-.08,1.39l-.61,10Z"/>
          <path d="M47.47,197.72V176.13h4v21.59Z"/>
          <path d="M54.17,197v-4.48a6,6,0,0,0,1.46,1.06,3.13,3.13,0,0,0,1.44.36,2,2,0,0,0,2.15-2.15,3.92,3.92,0,0,0-1.55-2.66c-.29-.27-.51-.47-.65-.62a12,12,0,0,1-2.49-3.19,7.33,7.33,0,0,1-.67-3.2,6.88,6.88,0,0,1,1.43-4.52,4.67,4.67,0,0,1,3.77-1.72,5.28,5.28,0,0,1,1.62.26,7.82,7.82,0,0,1,1.7.8v3.82a13.22,13.22,0,0,0-1.61-.75,3.09,3.09,0,0,0-1-.21,1.82,1.82,0,0,0-1.4.58,2.17,2.17,0,0,0-.54,1.53,3.1,3.1,0,0,0,.41,1.55,11.12,11.12,0,0,0,1.89,2.12,11.25,11.25,0,0,1,2.55,3.1,7.07,7.07,0,0,1,.57,3,6.76,6.76,0,0,1-1.52,4.65A5.25,5.25,0,0,1,57.57,198a6.65,6.65,0,0,1-1.84-.25A5.17,5.17,0,0,1,54.17,197Z"/>
          <path d="M65.55,197.72V176.13h4v21.59Z"/>
          <path d="M86.06,187.24a14.23,14.23,0,0,1-1.89,7.84,5.88,5.88,0,0,1-10.15,0q-1.81-2.92-1.82-8.13T74,178.8a5.82,5.82,0,0,1,10.17.07Q86.06,181.89,86.06,187.24Zm-6.94,6.64a2.44,2.44,0,0,0,2.26-1.73,18.54,18.54,0,0,0,0-10.44,2.34,2.34,0,0,0-4.52,0,13.89,13.89,0,0,0-.74,5.24,13.74,13.74,0,0,0,.74,5.22A2.41,2.41,0,0,0,79.12,193.88ZM83,168.68l-4,5.48H77.12l2.52-5.48Z"/>
          <path d="M88.49,197.72V176.13h4l4,11.62c.12.38.28.95.49,1.73s.46,1.68.73,2.73c-.21-1.53-.36-2.94-.46-4.21s-.15-2.47-.15-3.57v-8.3h3.65v21.59H97.07l-4.32-12.08a22.67,22.67,0,0,1-.57-2.2c-.15-.59-.26-1.06-.34-1.39.09.83.16,1.78.2,2.83s.07,2.3.07,3.76v9.08Z"/>
          <path d="M109.91,197.72V176.13h8.3v4h-4.49v4.37h4.07v4h-4.07v5.06h4.49v4.21Z"/>
          <path d="M120.26,197v-4.48a6.23,6.23,0,0,0,1.46,1.06,3.2,3.2,0,0,0,1.44.36,2,2,0,0,0,2.15-2.15,3.92,3.92,0,0,0-1.55-2.66c-.29-.27-.51-.47-.65-.62a11.93,11.93,0,0,1-2.48-3.19,7.19,7.19,0,0,1-.68-3.2,6.83,6.83,0,0,1,1.44-4.52,4.66,4.66,0,0,1,3.76-1.72,5.39,5.39,0,0,1,1.63.26,8,8,0,0,1,1.69.8v3.82a13.22,13.22,0,0,0-1.61-.75,3,3,0,0,0-1-.21,1.8,1.8,0,0,0-1.39.58,2.17,2.17,0,0,0-.54,1.53,3.09,3.09,0,0,0,.4,1.55,11.12,11.12,0,0,0,1.89,2.12,11.33,11.33,0,0,1,2.56,3.1,7.08,7.08,0,0,1,.56,3,6.72,6.72,0,0,1-1.52,4.65,5.25,5.25,0,0,1-4.14,1.71,6.71,6.71,0,0,1-1.84-.25A5.41,5.41,0,0,1,120.26,197Z"/>
          <path d="M133.34,197.72v-17.6h-3v-4h10v4h-3v17.6Z"/>
          <path d="M139.87,197.72l4.59-21.59h4.12L153,197.72H149l-.66-3.78h-4l-.61,3.78Zm5.26-7.14h2.62c-.27-1.51-.52-3.09-.73-4.74s-.41-3.39-.57-5.23q-.3,2.43-.63,4.92C145.6,187.19,145.37,188.87,145.13,190.58Z"/>
          <path d="M155.52,197.72v-17.6h-3v-4h10v4h-3v17.6Z"/>
          <path d="M162.06,197.72l4.59-21.59h4.12l4.38,21.59h-3.93l-.67-3.78h-4l-.61,3.78Zm5.25-7.14h2.62c-.27-1.51-.51-3.09-.73-4.74s-.4-3.39-.56-5.23q-.3,2.43-.63,4.92C167.79,187.19,167.56,188.87,167.31,190.58Z"/>
          <path d="M176.58,197.72V176.13h3.89v17.38H185v4.21Z"/>
        </g>
        <g>
          <path d="M19.06,226.19V204.6h3.38q4.56,0,6.81,2.68t2.25,8.13a15.9,15.9,0,0,1-.82,5.5,8.53,8.53,0,0,1-2.58,3.67,6.37,6.37,0,0,1-2.36,1.24,14.34,14.34,0,0,1-3.72.37Zm3.89-4h.31a3.58,3.58,0,0,0,3.2-1.73,9.24,9.24,0,0,0,1.11-5,10.09,10.09,0,0,0-1.07-5.23,3.63,3.63,0,0,0-3.29-1.71H23Z"/>
          <path d="M34,226.19V204.6h8.29v4H37.75V213h4.07v4H37.75V222h4.49v4.21Z"/>
          <path d="M51,226.19V204.6h8.3v4H54.8V213h4.07v4H54.8V222h4.49v4.21Z"/>
          <path d="M62,226.19V204.6h3.89V222h4.48v4.21Z"/>
          <path d="M71.88,226.19V204.6h8.29v4H75.69V213h4.06v4H75.69V222h4.48v4.21Z"/>
          <path d="M93,226a5.74,5.74,0,0,1-2.3.51,7.42,7.42,0,0,1-6.13-3,12.36,12.36,0,0,1-2.35-7.86,13.37,13.37,0,0,1,2.3-8.17,7.14,7.14,0,0,1,6-3.1,6.58,6.58,0,0,1,1.29.12,5.21,5.21,0,0,1,1.17.4v4a6.57,6.57,0,0,0-1.11-.37,5.33,5.33,0,0,0-1-.11,3.67,3.67,0,0,0-3.2,1.9,9.22,9.22,0,0,0-1.23,5.06,8.66,8.66,0,0,0,1.26,4.91,3.78,3.78,0,0,0,3.25,1.88,4.6,4.6,0,0,0,1-.13,6.15,6.15,0,0,0,1-.39Z"/>
          <path d="M105.56,226a5.27,5.27,0,0,1-1.14.38,5.55,5.55,0,0,1-1.15.13,7.42,7.42,0,0,1-6.13-3,12.36,12.36,0,0,1-2.35-7.86,13.37,13.37,0,0,1,2.3-8.17,7.14,7.14,0,0,1,6-3.1,6.65,6.65,0,0,1,1.29.12,5.13,5.13,0,0,1,1.16.4v4a6.19,6.19,0,0,0-1.1-.37,5.33,5.33,0,0,0-1-.11,3.66,3.66,0,0,0-3.2,1.9A9.22,9.22,0,0,0,99,215.35a8.66,8.66,0,0,0,1.26,4.91,3.78,3.78,0,0,0,3.25,1.88,4.6,4.6,0,0,0,1-.13,5.77,5.77,0,0,0,1-.39Z"/>
          <path d="M108.17,226.19V204.6h4v21.59Z"/>
          <path d="M128.68,215.71a14.15,14.15,0,0,1-1.9,7.84,5.87,5.87,0,0,1-10.14,0c-1.22-1.95-1.82-4.66-1.82-8.13s.61-6.17,1.84-8.14a5.82,5.82,0,0,1,10.17.07Q128.68,210.36,128.68,215.71Zm-7,6.64a2.43,2.43,0,0,0,2.27-1.74,18.51,18.51,0,0,0,0-10.43,2.43,2.43,0,0,0-2.27-1.74,2.41,2.41,0,0,0-2.25,1.73,18.61,18.61,0,0,0,0,10.46A2.41,2.41,0,0,0,121.73,222.35Z"/>
          <path d="M131.11,226.19V204.6h4l4,11.62c.11.38.28.95.49,1.73s.45,1.68.72,2.72c-.2-1.52-.36-2.93-.46-4.2s-.14-2.47-.14-3.57v-8.3h3.64v21.59h-3.64l-4.33-12.08c-.07-.18-.26-.91-.56-2.21-.15-.59-.26-1.05-.34-1.38.09.83.15,1.78.2,2.83s.07,2.3.07,3.76v9.08Z"/>
          <path d="M146.44,226.19V204.6h8.29v4h-4.48V213h4.06v4h-4.06V222h4.48v4.21Z"/>
          <path d="M156.79,225.44V221a6.19,6.19,0,0,0,1.45,1.06,3.19,3.19,0,0,0,1.45.35,2,2,0,0,0,2.15-2.14,3.88,3.88,0,0,0-1.56-2.66c-.28-.27-.5-.47-.64-.62a12,12,0,0,1-2.49-3.19,7.33,7.33,0,0,1-.67-3.2,6.82,6.82,0,0,1,1.43-4.52,4.67,4.67,0,0,1,3.77-1.72,5.28,5.28,0,0,1,1.62.26,8,8,0,0,1,1.7.8v3.82a12.91,12.91,0,0,0-1.62-.76,3.21,3.21,0,0,0-1-.2,1.81,1.81,0,0,0-1.39.58,2.17,2.17,0,0,0-.54,1.53,3.12,3.12,0,0,0,.41,1.55,11.12,11.12,0,0,0,1.89,2.12,11.29,11.29,0,0,1,2.55,3.1,7,7,0,0,1,.57,3,6.76,6.76,0,0,1-1.52,4.65,5.25,5.25,0,0,1-4.14,1.71,6.29,6.29,0,0,1-1.84-.26A4.92,4.92,0,0,1,156.79,225.44Z"/>
        </g>
        <path class="cls-1" d="M151.61,8.29l-27.79-8L104.69,11.36,91.53,24.88,84.46,36.05,81.9,42.67l-1.82,25.6s.26,13.49.77,13.53l25.66,1.83L120,72.39s8.72-19.59,9.1-20.08,9.64-20.75,9.64-20.75l7.06-10.65Z"/>
        <path class="cls-1" d="M136.24,67.06c-1.71-.65-.7-1.8-.4-2.67,2.55-7.42,5.82-14.6,7.58-22.29a2.92,2.92,0,0,1,2.51-2.44c1.31-.17,2.64-.16,4-.26,1.71-.13,3.4-.31,4.34-2.16-1.89-1-3.49.08-5.17.25s-3.82,1.2-4-1.91a.87.87,0,0,0-1.11-.73,1.24,1.24,0,0,0-1.07,1.2c0,1.92-1.5,2.16-2.88,2.5-.55.13-1.23.4-1.64-.12s.24-1,.53-1.48c1.4-2.15,2.89-4.25,4.22-6.44,3.61-5.94,6.6-12.24,10.48-18,.62-.92,2-1.85,0-2.88-1.55-.78-2.74-2.85-4.65-.23A107.77,107.77,0,0,0,141.12,22c-1.52,2.84-2.38,6.16-4.61,8.46C126.09,41.24,117,53.1,108.06,65c-2.36,3.15-4.76,5.14-8.86,5.08-1.91,0-2.23-.33-2-2.17,1.7-12.33,6.68-23.3,13.62-33.49l1.4-2.07c-2.12.52-3,2.13-4,3.61-1.23,1.87-2.33,3.82-3.46,5.74-.22.37-.45.73-.93.65a.61.61,0,0,1-.42-.78c.38-2.1-1-2.05-2.41-2-4,.19-7.94.32-11.91.57-1.94.13-2.52-.13-1.43-2.17A88.26,88.26,0,0,1,111.56,9.42,63.43,63.43,0,0,1,124,1.79c.42-.19,1.06-.29,1-.94s-.76-.5-1.19-.61a9.55,9.55,0,0,0-4.19,0c-8.29,1.68-14.31,7.4-20.26,12.53C92.1,19,86.53,27.08,82.1,35.67c-1.93,3.74-3.85,6.13-8.49,6.07-3.49-.05-3.46.46-3.62-3.15,0-.89.42-2.07-1-2.48-2.9-.85-4.36.17-4.59,3.21-.21,2.77-.75,3.24-3.57,3.2a20.49,20.49,0,0,0-2.48.06c-1,.11-1.81.53-1.91,1.62-.12,1.27,1,1.5,1.81,1.62a17.79,17.79,0,0,0,3.72.09c1.65-.11,2.1.5,2,2.15-.52,6.25-.91,12.51-1.28,18.77a2.69,2.69,0,0,1-1,1.9C52.18,77.86,43,87.37,33.1,96.06c-2.36,2.07-2.36,2.06-4.35-.48-2.26-2.89-2.94-2.88-5.27,0-1.54,1.91-.36,3.6.76,4.86,1.73,2,1.48,3.27-.54,4.59-.21.14-.38.32-.58.47-.88.65-.89,1.22.06,1.88a3.55,3.55,0,0,1,1.07,1.35c.88,1.85,2,1.9,3.58.78.44-.32,1.25-1.18,1.59-.16.48,1.47,1.94,1.88,2.66,3,2.85,4.29,6.25,8.15,9.47,12.16,8.62,10.71,16.65,21.87,24.85,32.9,3.34,4.47,3.48,4.38,0,8.8-.33.42-.57.82-.29,1.33.38.68,5.34,2.7,5.82,2.24,2.17-2.07,4.93-3.58,6.35-6.4,2,1.08,3.43.24,5-1.06,3.46-2.83,7.06-5.49,10.63-8.18,21.72-16.34,44.11-31.7,67-46.34,3,2.29,5.07,2.23,9.37-.64a20.36,20.36,0,0,1-2.37-1.64c-1.31-1.19-1.6-2.37.44-3.1.88-.32,1-.74.43-1.42l-3.09-3.69q-7.35-8.05-14.7-16.09-6.45-7-12.93-14c-.51-.55-1.13-1.91-1.85-.12"/>
        <path d="M165.72,97.3l3.09,3.69c.57.68.45,1.1-.43,1.42-2,.73-1.75,1.91-.44,3.1a20.36,20.36,0,0,0,2.37,1.64c-4.3,2.87-6.33,2.93-9.37.64-1.39-1.36-2.75-1.53-3.93.19-.48.69-1.2.84-1.83,1.21-6.5,3.8-13.13,7.39-19.45,11.46-7,4.52-13.81,9.45-20.66,14.25-11.27,7.89-22.91,15.27-33.59,24-.76.63-1.43,1.72-2.26,1.85-2.3.34-1.74,1.36-.92,2.63-1.42,2.82-4.18,4.33-6.35,6.4-.48.46-5.44-1.56-5.82-2.24-.28-.51,0-.91.29-1.34,3.46-4.42,3.32-4.32,0-8.8-8.2-11-16.23-22.18-24.85-32.89-3.22-4-6.62-7.87-9.47-12.16-.72-1.09-2.18-1.5-2.66-3-.34-1-1.15-.16-1.59.16-1.54,1.12-2.7,1.07-3.58-.78a3.55,3.55,0,0,0-1.07-1.35c-.95-.66-.94-1.23-.06-1.88.2-.15.37-.33.58-.47,2-1.32,2.27-2.64.54-4.59-1.12-1.26-2.3-2.95-.76-4.86,2.33-2.9,3-2.91,5.27,0,2,2.54,2,2.55,4.35.48C43,87.37,52.18,77.86,61.7,68.73a2.69,2.69,0,0,0,1-1.9c.37-6.26.76-12.52,1.28-18.77.13-1.65-.32-2.26-2-2.15a17.77,17.77,0,0,1-3.72-.09c-.85-.12-1.93-.35-1.81-1.62.1-1.09.95-1.51,1.91-1.62a18.63,18.63,0,0,1,2.48-.06c2.82,0,3.36-.43,3.57-3.2.23-3,1.69-4.06,4.59-3.21,1.4.41.94,1.59,1,2.48.16,3.61.13,3.1,3.62,3.15,4.64.06,6.56-2.33,8.49-6.07,4.43-8.59,10-16.67,17.27-22.92,5.95-5.13,12-10.85,20.26-12.53a9.55,9.55,0,0,1,4.19,0c.43.11,1.1-.08,1.19.61s-.56.75-1,.94a63.43,63.43,0,0,0-12.47,7.63A88.26,88.26,0,0,0,87.67,38c-1.09,2-.51,2.3,1.43,2.17,4-.25,7.94-.38,11.91-.57,1.43-.07,2.79-.12,2.41,2-.06.34,0,.71.42.78s.71-.28.93-.65c1.13-1.92,2.23-3.87,3.46-5.74,1-1.48,1.89-3.09,4-3.61l-1.4,2.07C103.9,44.63,98.92,55.6,97.22,67.93c-.25,1.84.07,2.15,2,2.17,4.09.06,6.5-1.93,8.86-5.08,9-11.92,18-23.79,28.45-34.54,2.23-2.3,3.09-5.62,4.61-8.46A107.77,107.77,0,0,1,149,9.37c1.91-2.62,3.1-.56,4.65.23,2,1,.63,2,0,2.88-3.88,5.79-6.87,12.09-10.48,18-1.33,2.19-2.82,4.29-4.22,6.44-.29.45-1,.86-.53,1.48s1.09.25,1.64.12c1.38-.34,2.86-.58,2.88-2.5a1.24,1.24,0,0,1,1.07-1.2.85.85,0,0,1,1.1.73c.16,3.11,2.34,2.09,4,1.91s3.28-1.28,5.17-.25c-.94,1.85-2.63,2-4.34,2.16-1.32.1-2.65.09-4,.26a2.92,2.92,0,0,0-2.51,2.44c-1.76,7.69-5,14.87-7.58,22.29-.3.87-1.31,2,.4,2.67.8.94,1.66,1.84,2.38,2.84,6.84,9.49,15.21,17.68,22.64,26.68,1.44,1.74,2.7,2.16,4.46.72m-39.93-8.55c.39-1,.85-2,1.17-3,3.08-9.77,5.9-19.62,9.56-29.19a85.42,85.42,0,0,0,4.2-14c.1-.53.72-1.23-.21-1.72s-5.93.42-6.69,1.33c-8.25,9.74-16.58,19.4-23.88,29.9-1.18,1.7-2.56,4-4.81,4.09-4,.22-8-.18-12.08-.32-.58,0-1.34,0-1.09-.89.6-2.07.06-4.64,2.42-6a2.14,2.14,0,0,0,.94-1.65,101.18,101.18,0,0,1,8.13-23.1c.66-1.35.25-1.5-1-1.47q-15.54.39-31,2.16c-.94.11-1.48.3-1.55,1.43-.4,6.35-.89,12.71-1.34,19.06-.48,7.85-.93,15.71-1.46,23.56-.18,2.64-.63,5.25-.81,7.88-.15,2,.76,2.65,2.88,2.24,5-1,10-1.93,15.14-2.51,12.85-1.45,25.62-3.53,38.44-5.25,1.74-.24,2.73-.89,3-2.6M45.52,109.37c-.89-.13-2.08.35-2.36-.57-.72-2.32-2.71-3.24-4.4-4.5-.4-.3-1-.51-.76-1.09.46-1,1.72-.89,2.48-1.53.37-.32.77-.3.81.34.11,1.55,1.19.81,1.83.68,5-.94,9.91-2,14.88-2.91,1.48-.28,2-1,2.24-2.43,1.1-5.31.68-10.68.91-16a1.58,1.58,0,0,0-.73-1.48c-.62-.31-1,.39-1.41.78-1.49,1.44-2.95,2.92-4.46,4.34-5.74,5.4-12,10.23-17.45,15.94-1.32,1.37-1.54,2.36-.32,4,7.18,9.44,14.16,19,20.64,28.95A158.16,158.16,0,0,0,73.66,155.2c.84.89,1.45,1.88,3,.61,13.78-11.52,29.09-20.89,43.78-31.12,10.61-7.39,21.31-14.65,32-21.93,1.2-.82,1.54-1.25.69-2.8-1-1.82-2.5-3-3.78-4.52-4.55-5.27-8.78-10.84-13.92-15.58-2.5-2.3-2.55-2.3-3.52.82-1.37,4.43-2.66,8.88-4,13.31-.55,1.78-1.6,3.05-3.68,3.13-9.56.33-18.92,2.24-28.35,3.6-10.91,1.58-21.85,3.09-32.66,5.2-5.91,1.16-11.87,2.08-17.65,3.45"/>
        <path class="cls-2" d="M78.3,163.37c-.82-1.27-1.38-2.29.92-2.63.83-.13,1.5-1.22,2.26-1.85,10.68-8.72,22.32-16.1,33.59-24,6.85-4.8,13.63-9.73,20.66-14.25,6.32-4.07,13-7.66,19.45-11.46.63-.37,1.35-.52,1.83-1.21,1.18-1.72,2.55-1.55,3.93-.19-22.89,14.64-45.28,30-67,46.34-3.57,2.69-7.17,5.35-10.63,8.18-1.58,1.3-3,2.13-5,1.06"/>
        <path class="cls-2" d="M165.72,97.3c-1.76,1.44-3,1-4.46-.72-7.42-9-15.8-17.19-22.64-26.68-.72-1-1.58-1.9-2.38-2.84.72-1.79,1.34-.43,1.85.12q6.49,7,12.93,14,7.36,8,14.7,16.09"/>
        <path class="cls-2" d="M45.52,109.37c5.78-1.37,11.74-2.29,17.65-3.45,10.81-2.11,21.75-3.62,32.66-5.2,9.43-1.36,18.79-3.27,28.35-3.6,2.08-.08,3.13-1.35,3.68-3.13,1.37-4.43,2.66-8.88,4-13.31,1-3.12,1-3.12,3.52-.82,5.14,4.74,9.37,10.31,13.92,15.58,1.28,1.47,2.78,2.7,3.78,4.52.85,1.55.51,2-.69,2.8-10.7,7.28-21.4,14.54-32,21.93-14.69,10.23-30,19.6-43.78,31.12-1.52,1.27-2.13.28-3-.61a158.16,158.16,0,0,1-16.24-21.38c-6.48-9.94-13.46-19.51-20.64-28.95-1.22-1.6-1-2.59.32-4C42.56,95.2,48.81,90.37,54.55,85c1.51-1.42,3-2.9,4.46-4.34.4-.39.79-1.09,1.41-.78a1.58,1.58,0,0,1,.73,1.48c-.23,5.35.19,10.72-.91,16-.29,1.41-.76,2.15-2.24,2.43-5,.91-9.92,2-14.88,2.91-.64.13-1.72.87-1.83-.68,0-.64-.44-.66-.81-.34-.76.64-2,.52-2.48,1.53-.26.58.36.79.76,1.09,1.69,1.26,3.68,2.18,4.4,4.5.28.92,1.47.44,2.36.57"/>
        <path class="cls-1" d="M68.6,65.43c.45-6.35.94-12.71,1.34-19.06.07-1.13.61-1.32,1.55-1.43q15.44-1.77,31-2.16c1.24,0,1.66.12,1,1.47a101.18,101.18,0,0,0-8.13,23.1A2.14,2.14,0,0,1,94.38,69C92,70.33,92.56,72.89,92,75c-.25.87.51.87,1.09.89,4,.14,8.07.54,12.08.32,2.25-.12,3.63-2.39,4.81-4.09,7.3-10.5,15.63-20.16,23.88-29.9.77-.9,5.73-1.83,6.69-1.33s.31,1.19.21,1.73a84.63,84.63,0,0,1-4.2,14C132.86,66.15,130,76,127,85.76c-.32,1-.78,2-1.17,3q-11.34,1.36-22.67,2.74c-10.43,1.29-20.86,2.57-31.28,3.94-1.8.24-2.28-.28-2.29-2,0-3.8-.21-7.6-.37-11.4-.24-5.52.06-11.06-.58-16.57"/>
        <path class="cls-2" d="M68.6,65.43c.64,5.51.34,11,.58,16.57.16,3.8.36,7.6.37,11.4,0,1.75.49,2.27,2.29,2,10.42-1.37,20.85-2.65,31.28-3.94q11.32-1.39,22.67-2.74c-.27,1.71-1.25,2.36-3,2.6C110,93.07,97.2,95.15,84.35,96.6c-5.11.58-10.12,1.56-15.14,2.51-2.12.41-3-.2-2.88-2.24.18-2.63.63-5.24.81-7.88.53-7.85,1-15.71,1.46-23.56"/>
      </g>
    </g>
  </g>
</svg>
