<svg xmlns="http://www.w3.org/2000/svg" width="956.7" height="166.69" viewBox="0 0 956.7 166.69">
  <defs>
    <style>
      .cls-1 {
        fill: #4d4d4d;
      }

      .cls-2 {
        fill: #fdf50b;
      }
    </style>
  </defs>
  <title>Preguntas-F-completo</title>
  <g id="Layer_2" data-name="Layer 2">
    <g id="Layer_1-2" data-name="Layer 1">
      <g>
        <g>
          <path d="M4.62,49.21H27.39c13.44,0,22.1,6.91,22.1,18.68V68c0,12.53-9.64,19.13-22.86,19.13H19.35v15.19H4.62ZM26.33,75.63c5.24,0,8.43-2.73,8.43-6.91v-.15c0-4.55-3.19-7-8.5-7H19.35v14Z"/>
          <path d="M54.88,61.28H69.3v8.28c2.36-5.62,6.15-9.26,13-9V75.78H81.07c-7.52,0-11.77,4.33-11.77,13.82v12.76H54.88Z"/>
          <path d="M85,82v-.15c0-12,8.58-21.49,20.73-21.49,14.19,0,20.72,10.4,20.72,22.48,0,.91,0,2-.07,3H98.91c1.14,4.48,4.41,6.75,8.89,6.75,3.41,0,6.15-1.29,9.11-4.17l8,6.6c-3.95,5-9.64,8.36-17.84,8.36C94.13,103.35,85,94.77,85,82ZM113,78.44c-.53-4.55-3.19-7.44-7.14-7.44-3.8,0-6.38,3-7.14,7.44Z"/>
          <path d="M132.24,110l4.63-9.56a28.37,28.37,0,0,0,14.35,3.87c7.22,0,10.78-3.57,10.78-10.1v-1.6c-2.88,3.35-6.68,6.15-12.68,6.15-10.09,0-18.22-7.28-18.22-19V79.5c0-11.84,8.28-19.13,17.77-19.13,6.15,0,9.79,2.51,12.91,5.77V61.28H176.2V92.49c0,7.52-1.67,12.76-5.31,16.4s-9.49,5.77-18.07,5.77A44,44,0,0,1,132.24,110ZM162,79.66V79.5c0-4.55-3.49-7.89-8.35-7.89s-8.43,3.42-8.43,8v.15c0,4.56,3.5,7.9,8.43,7.9S162,84.21,162,79.66Z"/>
          <path d="M183.64,88.16V61.28h14.43V83.53c0,4.48,2.35,6.91,5.84,6.91s6-2.43,6-6.91V61.28h14.43v41.08H209.91V96.74c-2.66,3.42-6.45,6.53-12.3,6.53C188.88,103.27,183.64,97.5,183.64,88.16Z"/>
          <path d="M232.08,61.28H246.5v5.77c2.66-3.41,6.46-6.68,12.3-6.68,8.74,0,14,5.77,14,15.11v26.88H258.35V80.11c0-4.48-2.35-6.91-5.77-6.91s-6.08,2.43-6.08,6.91v22.25H232.08Z"/>
          <path d="M282.72,89.6V72.9h-4.86V61.28h4.86V50.88h14.42v10.4h9.57V72.9h-9.57V86.79c0,2.89,1.3,4.1,3.95,4.1a12.74,12.74,0,0,0,5.47-1.36v11.31a20.6,20.6,0,0,1-10,2.35C287.88,103.19,282.72,99.4,282.72,89.6Z"/>
          <path d="M310.88,90.59v-.15c0-8.51,6.46-12.91,16.1-12.91a31.31,31.31,0,0,1,9.87,1.6v-.69c0-4.25-2.66-6.68-8.2-6.68A28.94,28.94,0,0,0,317.34,74l-3-10.18A41.38,41.38,0,0,1,331,60.67c7.36,0,12.37,1.75,15.64,5,3.11,3,4.4,7.29,4.4,13.06v23.61H336.78V98.11a15.52,15.52,0,0,1-12.08,5.16C316.88,103.27,310.88,98.79,310.88,90.59ZM337,87.48v-1.9a15,15,0,0,0-5.61-1.06c-4.18,0-6.61,2-6.61,5.08v.15c0,2.81,2.13,4.49,5.09,4.49C334,94.24,337,91.58,337,87.48Z"/>
          <path d="M355.3,97.2l5.39-8.74a26.64,26.64,0,0,0,14.12,4.71c2.51,0,3.65-.76,3.65-2.2v-.15c0-1.6-2.28-2.28-6.61-3.49-8.12-2.13-14.58-4.86-14.58-13.14V74c0-8.73,7-13.59,16.48-13.59a32.09,32.09,0,0,1,16.93,4.78l-4.93,9.11c-4.26-2.35-8.89-3.79-12.15-3.79-2.2,0-3.34.83-3.34,2v.15c0,1.6,2.35,2.36,6.68,3.65,8.12,2.27,14.58,5.08,14.58,13.06v.15c0,9-6.76,13.74-16.78,13.74A33.12,33.12,0,0,1,355.3,97.2Z"/>
        </g>
        <g>
          <path class="cls-1" d="M421,72.82h-4.79V61.51H421V60.6c0-4.71,1.06-8.2,3.49-10.63s5.85-3.57,10.71-3.57a31.56,31.56,0,0,1,9.41,1.14V57.71a17.13,17.13,0,0,0-5.39-.83c-2.66,0-4.1,1.21-4.1,3.87v1h9.41V72.82h-9.18v29.54H421Z"/>
          <path class="cls-1" d="M449.07,61.28h14.42v8.28c2.36-5.62,6.15-9.26,13-9V75.78h-1.22c-7.51,0-11.77,4.33-11.77,13.82v12.76H449.07Z"/>
          <path class="cls-1" d="M479.21,82v-.15c0-12,8.58-21.49,20.73-21.49,14.2,0,20.72,10.4,20.72,22.48,0,.91,0,2-.07,3H493.1c1.14,4.48,4.41,6.75,8.89,6.75,3.41,0,6.15-1.29,9.11-4.17l8,6.6c-4,5-9.64,8.36-17.84,8.36C488.32,103.35,479.21,94.77,479.21,82Zm27.94-3.57C506.62,73.89,504,71,500,71c-3.79,0-6.38,3-7.13,7.44Z"/>
          <path class="cls-1" d="M525.14,82v-.15c0-11.62,9-21.41,22-21.41,8.43,0,14.05,3.64,17.54,9.18l-9.79,7.29c-2-2.73-4.18-4.32-7.67-4.32-4.64,0-8,4.1-8,9.11v.15c0,5.31,3.34,9.34,8.2,9.34,3.42,0,5.62-1.6,7.9-4.25l9.64,7c-3.8,5.62-9.27,9.42-18.3,9.42A21.2,21.2,0,0,1,525.14,82Z"/>
          <path class="cls-1" d="M569.71,88.16V61.28h14.42V83.53c0,4.48,2.36,6.91,5.85,6.91s6-2.43,6-6.91V61.28H610.4v41.08H596V96.74c-2.66,3.42-6.46,6.53-12.3,6.53C575,103.27,569.71,97.5,569.71,88.16Z"/>
          <path class="cls-1" d="M616.48,82v-.15c0-12,8.58-21.49,20.72-21.49,14.2,0,20.73,10.4,20.73,22.48,0,.91,0,2-.07,3H630.37c1.14,4.48,4.4,6.75,8.88,6.75,3.42,0,6.15-1.29,9.11-4.17l8,6.6c-4,5-9.65,8.36-17.85,8.36C625.59,103.35,616.48,94.77,616.48,82Zm27.94-3.57c-.53-4.55-3.19-7.44-7.14-7.44-3.8,0-6.38,3-7.14,7.44Z"/>
          <path class="cls-1" d="M664.08,61.28H678.5v5.77c2.66-3.41,6.46-6.68,12.3-6.68,8.74,0,14,5.77,14,15.11v26.88H690.35V80.11c0-4.48-2.36-6.91-5.77-6.91s-6.08,2.43-6.08,6.91v22.25H664.08Z"/>
          <path class="cls-1" d="M714.72,89.6V72.9h-4.86V61.28h4.86V50.88h14.43v10.4h9.56V72.9h-9.56V86.79c0,2.89,1.29,4.1,3.94,4.1a12.74,12.74,0,0,0,5.47-1.36v11.31a20.6,20.6,0,0,1-10,2.35C719.88,103.19,714.72,99.4,714.72,89.6Z"/>
          <path class="cls-1" d="M742.2,82v-.15c0-12,8.58-21.49,20.73-21.49,14.2,0,20.73,10.4,20.73,22.48,0,.91,0,2-.08,3H756.1c1.14,4.48,4.4,6.75,8.88,6.75,3.42,0,6.15-1.29,9.11-4.17l8,6.6c-3.94,5-9.64,8.36-17.84,8.36C751.31,103.35,742.2,94.77,742.2,82Zm27.94-3.57C769.61,73.89,767,71,763,71s-6.38,3-7.14,7.44Z"/>
          <path class="cls-1" d="M786.69,97.2l5.39-8.74a26.65,26.65,0,0,0,14.13,4.71c2.5,0,3.64-.76,3.64-2.2v-.15c0-1.6-2.28-2.28-6.61-3.49-8.12-2.13-14.57-4.86-14.57-13.14V74c0-8.73,7-13.59,16.47-13.59a32.07,32.07,0,0,1,16.93,4.78l-4.93,9.11c-4.25-2.35-8.88-3.79-12.15-3.79-2.2,0-3.34.83-3.34,2v.15c0,1.6,2.35,2.36,6.68,3.65,8.13,2.27,14.58,5.08,14.58,13.06v.15c0,9-6.76,13.74-16.78,13.74A33.15,33.15,0,0,1,786.69,97.2Z"/>
        </g>
        <rect class="cls-2" y="124.85" width="390" height="10"/>
        <g>
          <path d="M416.72,134l1.56-2.53a7.69,7.69,0,0,0,4.09,1.37c.73,0,1.06-.22,1.06-.64v0c0-.47-.66-.66-1.91-1-2.36-.61-4.23-1.4-4.23-3.8v0c0-2.53,2-3.93,4.78-3.93a9.29,9.29,0,0,1,4.9,1.38l-1.43,2.64a8.05,8.05,0,0,0-3.52-1.1c-.64,0-1,.24-1,.57v0c0,.46.69.68,1.94,1,2.35.66,4.22,1.48,4.22,3.79v0c0,2.62-1.95,4-4.86,4A9.58,9.58,0,0,1,416.72,134Z"/>
          <path d="M431.08,129.56v0a6.35,6.35,0,0,1,6.61-6.23,6.28,6.28,0,0,1,6.55,6.19v0a6.59,6.59,0,0,1-13.16,0Zm9.09,0v0a2.57,2.57,0,0,0-2.53-2.68,2.49,2.49,0,0,0-2.49,2.64v0a2.58,2.58,0,0,0,2.54,2.68A2.49,2.49,0,0,0,440.17,129.56Z"/>
          <path d="M452.82,134v1.45h-4.18V119.4h4.18v5.74a4.37,4.37,0,0,1,3.61-1.85c2.84,0,5.28,2.36,5.28,6.16v.05c0,3.87-2.44,6.22-5.26,6.22A4.48,4.48,0,0,1,452.82,134Zm4.78-4.49v0a2.45,2.45,0,1,0-4.87,0v0a2.45,2.45,0,1,0,4.87,0Z"/>
          <path d="M466.15,123.56h4.18V126a3.64,3.64,0,0,1,3.77-2.6v4.4h-.36c-2.18,0-3.41,1.25-3.41,4v3.7h-4.18Z"/>
          <path d="M477.48,129.56v0a6,6,0,0,1,6-6.23c4.11,0,6,3,6,6.52a8.24,8.24,0,0,1,0,.85h-8a2.45,2.45,0,0,0,2.57,2,3.56,3.56,0,0,0,2.64-1.21l2.31,1.92a6.23,6.23,0,0,1-5.17,2.42C480.12,135.75,477.48,133.26,477.48,129.56Zm8.1-1c-.16-1.32-.93-2.16-2.07-2.16s-1.85.86-2.07,2.16Z"/>
          <path d="M502.72,119.4h4.18v16.06h-4.18Z"/>
          <path d="M511.38,129.56v0a6.59,6.59,0,0,1,13.16,0v0a6.59,6.59,0,0,1-13.16,0Zm9.09,0v0a2.58,2.58,0,0,0-2.53-2.68,2.49,2.49,0,0,0-2.49,2.64v0A2.58,2.58,0,0,0,518,132.2,2.49,2.49,0,0,0,520.47,129.56Z"/>
          <path d="M528,134l1.57-2.53a7.67,7.67,0,0,0,4.09,1.37c.72,0,1.05-.22,1.05-.64v0c0-.47-.66-.66-1.91-1-2.35-.61-4.23-1.4-4.23-3.8v0c0-2.53,2-3.93,4.78-3.93a9.33,9.33,0,0,1,4.91,1.38l-1.43,2.64a8.13,8.13,0,0,0-3.52-1.1c-.64,0-1,.24-1,.57v0c0,.46.68.68,1.93,1,2.36.66,4.23,1.48,4.23,3.79v0c0,2.62-2,4-4.86,4A9.59,9.59,0,0,1,528,134Z"/>
          <path d="M552.3,131.76v-4.84h-1.4v-3.36h1.4v-3h4.18v3h2.78v3.36h-2.78v4c0,.84.38,1.19,1.15,1.19a3.66,3.66,0,0,0,1.58-.4V135a6,6,0,0,1-2.9.68C553.8,135.7,552.3,134.6,552.3,131.76Z"/>
          <path d="M563.68,123.56h4.18V126a3.64,3.64,0,0,1,3.76-2.6v4.4h-.35c-2.18,0-3.41,1.25-3.41,4v3.7h-4.18Z"/>
          <path d="M575.14,132.05v0c0-2.47,1.87-3.74,4.66-3.74a9.18,9.18,0,0,1,2.86.46v-.2c0-1.23-.77-1.94-2.37-1.94a8.49,8.49,0,0,0-3.28.66l-.86-2.94a11.77,11.77,0,0,1,4.82-.93,6.13,6.13,0,0,1,4.53,1.45,5,5,0,0,1,1.28,3.79v6.84h-4.14v-1.23a4.48,4.48,0,0,1-3.5,1.49C576.88,135.72,575.14,134.43,575.14,132.05Zm7.57-.9v-.55a4.3,4.3,0,0,0-1.63-.31c-1.21,0-1.91.59-1.91,1.47v.05a1.31,1.31,0,0,0,1.47,1.3A1.91,1.91,0,0,0,582.71,131.15ZM582,118.39l3.87,1.25-3.25,2.79h-2.91Z"/>
          <path d="M591.55,123.56h4.18v1.63a4.38,4.38,0,0,1,3.54-1.9,3.66,3.66,0,0,1,3.44,1.94,5,5,0,0,1,4-1.94c2.53,0,4.07,1.59,4.07,4.36v7.81h-4.18V129c0-1.3-.64-2-1.63-2s-1.72.68-1.72,2v6.47h-4.18V129c0-1.3-.63-2-1.62-2s-1.7.68-1.7,2v6.47h-4.18Z"/>
          <path d="M615.53,119.4h4.36v3.08h-4.36Zm.09,4.16h4.18v11.9h-4.18Z"/>
          <path d="M625.5,131.76v-4.84h-1.41v-3.36h1.41v-3h4.18v3h2.77v3.36h-2.77v4c0,.84.37,1.19,1.14,1.19a3.66,3.66,0,0,0,1.58-.4V135a5.89,5.89,0,0,1-2.9.68C627,135.7,625.5,134.6,625.5,131.76Z"/>
          <path d="M636.06,129.56v0a6,6,0,0,1,6-6.23c4.12,0,6,3,6,6.52,0,.26,0,.57,0,.85h-8a2.46,2.46,0,0,0,2.58,2,3.58,3.58,0,0,0,2.64-1.21l2.31,1.92a6.26,6.26,0,0,1-5.17,2.42C638.7,135.75,636.06,133.26,636.06,129.56Zm8.09-1c-.15-1.32-.92-2.16-2.06-2.16s-1.85.86-2.07,2.16Z"/>
          <path d="M651.57,134l1.56-2.53a7.67,7.67,0,0,0,4.09,1.37c.73,0,1.06-.22,1.06-.64v0c0-.47-.66-.66-1.92-1-2.35-.61-4.22-1.4-4.22-3.8v0c0-2.53,2-3.93,4.77-3.93a9.3,9.3,0,0,1,4.91,1.38l-1.43,2.64a8.09,8.09,0,0,0-3.52-1.1c-.64,0-1,.24-1,.57v0c0,.46.68.68,1.94,1,2.35.66,4.22,1.48,4.22,3.79v0c0,2.62-2,4-4.86,4A9.58,9.58,0,0,1,651.57,134Z"/>
          <path d="M674.67,129.56v0a6,6,0,0,1,6-6.23c4.12,0,6,3,6,6.52,0,.26,0,.57,0,.85h-8a2.46,2.46,0,0,0,2.58,2,3.58,3.58,0,0,0,2.64-1.21l2.31,1.92a6.26,6.26,0,0,1-5.17,2.42C677.31,135.75,674.67,133.26,674.67,129.56Zm8.09-1a2.13,2.13,0,0,0-2.07-2.16c-1.1,0-1.84.86-2.06,2.16Z"/>
          <path d="M691.19,119.4h4.18v16.06h-4.18Z"/>
          <path d="M699.85,129.56v0a6,6,0,0,1,6-6.23c4.12,0,6,3,6,6.52,0,.26,0,.57,0,.85h-8a2.46,2.46,0,0,0,2.58,2,3.58,3.58,0,0,0,2.64-1.21l2.31,1.92a6.26,6.26,0,0,1-5.17,2.42C702.5,135.75,699.85,133.26,699.85,129.56Zm8.1-1a2.13,2.13,0,0,0-2.07-2.16c-1.1,0-1.84.86-2.06,2.16Z"/>
          <path d="M715.81,129.56v0a6.17,6.17,0,0,1,6.38-6.2,5.62,5.62,0,0,1,5.08,2.66l-2.84,2.11a2.56,2.56,0,0,0-2.22-1.25,2.46,2.46,0,0,0-2.33,2.64v0a2.47,2.47,0,0,0,2.37,2.71,2.86,2.86,0,0,0,2.29-1.24l2.8,2a5.93,5.93,0,0,1-5.31,2.73A6.14,6.14,0,0,1,715.81,129.56Z"/>
          <path d="M732.17,131.76v-4.84h-1.4v-3.36h1.4v-3h4.18v3h2.78v3.36h-2.78v4c0,.84.38,1.19,1.15,1.19a3.66,3.66,0,0,0,1.58-.4V135a6,6,0,0,1-2.9.68C733.67,135.7,732.17,134.6,732.17,131.76Z"/>
          <path d="M742.73,129.56v0a6.59,6.59,0,0,1,13.16,0v0a6.59,6.59,0,0,1-13.16,0Zm9.09,0v0a2.58,2.58,0,0,0-2.53-2.68,2.49,2.49,0,0,0-2.49,2.64v0a2.58,2.58,0,0,0,2.53,2.68A2.49,2.49,0,0,0,751.82,129.56Z"/>
          <path d="M760.29,123.56h4.18V126a3.64,3.64,0,0,1,3.76-2.6v4.4h-.35c-2.18,0-3.41,1.25-3.41,4v3.7h-4.18Z"/>
          <path d="M771.18,132.05v0c0-2.47,1.87-3.74,4.66-3.74a9.18,9.18,0,0,1,2.86.46v-.2c0-1.23-.77-1.94-2.37-1.94a8.49,8.49,0,0,0-3.28.66l-.86-2.94a11.77,11.77,0,0,1,4.82-.93,6.13,6.13,0,0,1,4.53,1.45,5,5,0,0,1,1.28,3.79v6.84h-4.14v-1.23a4.48,4.48,0,0,1-3.5,1.49C772.92,135.72,771.18,134.43,771.18,132.05Zm7.57-.9v-.55a4.3,4.3,0,0,0-1.63-.31c-1.21,0-1.91.59-1.91,1.47v.05a1.31,1.31,0,0,0,1.47,1.3A1.91,1.91,0,0,0,778.75,131.15Z"/>
          <path d="M787.68,119.4h4.18v16.06h-4.18Z"/>
          <path d="M796.35,129.56v0a6,6,0,0,1,6-6.23c4.12,0,6,3,6,6.52,0,.26,0,.57,0,.85h-8a2.46,2.46,0,0,0,2.58,2,3.58,3.58,0,0,0,2.64-1.21l2.31,1.92a6.26,6.26,0,0,1-5.17,2.42C799,135.75,796.35,133.26,796.35,129.56Zm8.09-1c-.15-1.32-.92-2.16-2.06-2.16s-1.85.86-2.07,2.16Z"/>
          <path d="M811.88,134l1.56-2.53a7.69,7.69,0,0,0,4.09,1.37c.73,0,1.06-.22,1.06-.64v0c0-.47-.66-.66-1.91-1-2.36-.61-4.23-1.4-4.23-3.8v0c0-2.53,2-3.93,4.78-3.93a9.29,9.29,0,0,1,4.9,1.38l-1.43,2.64a8.05,8.05,0,0,0-3.52-1.1c-.64,0-1,.24-1,.57v0c0,.46.69.68,1.94,1,2.35.66,4.22,1.48,4.22,3.79v0c0,2.62-2,4-4.86,4A9.58,9.58,0,0,1,811.88,134Z"/>
        </g>
        <g>
          <path d="M860.69,76.89,862,75.32c18.26-1.7,24.72-6.39,24.74-13.88v-.18c0-5.92-4.23-9.59-11.78-9.6-7.4,0-15.6,4.14-23,11.44l-15.69-23c9.63-10.61,22.71-18.24,40.81-18.2,23.14.05,39.32,14,39.26,36.67v.35c0,22-13.29,31.33-30.77,36L883.61,106l-19.05,0Zm-2.6,39.19,31,.07L889,145.77l-31-.07Z"/>
          <polygon points="790.01 0 790.01 53.85 797.7 53.85 797.7 7.69 949.01 7.69 949.01 159 797.7 159 797.7 142.85 790.01 142.85 790.01 166.69 956.7 166.69 956.7 0 790.01 0"/>
        </g>
      </g>
    </g>
  </g>
</svg>
